<svg width="1600" height="446" viewBox="0 0 1600 446" fill="none" xmlns="http://www.w3.org/2000/svg">
<g clip-path="url(#clip0_294_24)">
<path d="M1390.73 259.574C1390.73 271.836 1379.84 280.86 1367.94 280.966C1358.42 280.966 1352.05 274.809 1351.99 265.041C1352.05 256.973 1356.67 251.293 1363.95 248.161C1372.19 244.658 1381.91 244.021 1390.79 244.286V259.574H1390.73ZM1598.94 250.921C1604.57 219.921 1587.83 185.258 1551.96 185.099C1518.16 185.258 1497.71 213.604 1497.71 244.764C1497.86 279.427 1521.99 300.872 1554.94 301.031C1568.01 300.978 1581.56 298.961 1593.68 293.971L1589.58 274.596C1579.75 278.365 1569.28 279.586 1558.82 279.586C1540.7 279.586 1525.34 269.607 1524.59 250.868H1598.94V250.921ZM1524.59 231.281C1525.92 217.055 1535.43 204.315 1550.37 204.156C1565.72 204.262 1573.8 217.373 1573.38 231.281H1524.59ZM1438.99 167.051V187.541H1423.04V208.508H1438.99V256.761C1438.99 286.911 1457.64 307.295 1492.13 298.059L1491.65 276.667C1476.82 281.072 1466.19 274.809 1466.35 257.557V208.562H1493.03V187.594H1466.35V159.142L1438.99 167.104V167.051ZM1141.56 167.051V187.541H1125.62V208.508H1141.56V256.761C1141.56 286.911 1160.21 307.295 1194.7 298.059L1194.22 276.667C1179.39 281.072 1168.77 274.809 1168.93 257.557V208.562H1195.6V187.594H1168.93V159.142L1141.56 167.104V167.051ZM936.438 233.829L955.834 167.316L975.921 233.829H936.491H936.438ZM980.65 255.009L994.573 298.537H1024.65L974.699 145.022H938.882L889.621 298.537H918.583L931.814 255.009H980.597H980.65ZM1110.42 274.331C1103.4 277.41 1095.91 278.577 1088.31 278.684C1068.01 278.684 1054.46 263.29 1054.36 242.906C1054.2 223.159 1067.38 207.075 1088.31 206.916C1095.54 206.969 1102.93 208.137 1109.52 211.269L1114.51 190.301C1106.22 186.532 1096.39 185.046 1087.36 185.046C1052.02 185.205 1025.71 209.411 1025.55 244.286C1025.71 278.312 1048.83 300.872 1082.79 301.031C1093.1 300.925 1104.79 299.545 1114.24 295.086L1110.37 274.384L1110.42 274.331ZM1310.12 187.594H1282.06V254.584C1282.06 267.005 1271.91 278.153 1259.05 278.259C1242.1 278.153 1238.22 261.963 1238.33 247.949V187.594H1210.27V252.726C1210.38 276.72 1220.58 301.244 1249.06 301.031C1263.99 300.925 1276.22 294.237 1284.61 281.656V298.537H1311.08L1310.17 187.594H1310.12ZM1418.1 231.759C1418.1 202.298 1400.51 185.205 1372.24 185.046C1358.69 185.152 1343.86 187.594 1332.12 194.866L1337.59 213.074C1346.36 207.606 1357.2 204.899 1367.46 204.899C1381.81 205.005 1390.04 212.383 1390.04 226.079C1376.33 226.026 1364.54 227.512 1354.7 230.644C1336.9 236.218 1324.2 248.586 1324.15 268.014C1324.15 287.177 1339.98 300.925 1359.06 301.031C1371.44 300.925 1384.09 296.254 1391.9 286.221L1394.4 298.537H1418.1V231.812V231.759Z" fill="#010101"/>
<path d="M812.461 167.051V187.541H796.519V208.508H812.461V256.761C812.461 286.911 831.114 307.295 865.602 298.059L865.123 276.667C850.297 281.072 839.669 274.809 839.829 257.557V208.562H866.505V187.594H839.829V159.142L812.461 167.104V167.051ZM578.91 298.483L577.528 182.126L645.92 298.483H674.881V144.969H648.896L650.968 258.459L585.074 144.969H553.137V298.483H578.91ZM715.427 231.281C716.756 217.055 726.268 204.315 741.2 204.156C756.558 204.262 764.635 217.373 764.21 231.281H715.427ZM789.771 250.921C795.403 219.921 778.664 185.258 742.795 185.099C708.997 185.258 688.538 213.604 688.538 244.764C688.698 279.427 712.823 300.872 745.77 301.031C758.843 300.978 772.394 298.961 784.51 293.971L780.418 274.596C770.587 278.365 760.118 279.586 749.65 279.586C731.529 279.586 716.171 269.607 715.427 250.868H789.771V250.921Z" fill="#010101"/>
<path fill-rule="evenodd" clip-rule="evenodd" d="M435.591 97.8843C433.359 99.583 431.339 101.069 429.533 102.449C389.837 40.8205 320.542 0 241.735 0C118.45 0 18.4927 99.8484 18.4927 223C18.4927 244.233 21.4685 264.776 27.0483 284.257C111.329 197.308 197.522 119.277 287.595 58.3909C333.402 31.5311 350.619 52.9234 313.74 127.611C276.01 222.31 295.3 256.389 417.151 146.88C426.185 138.386 434.262 130.424 441.383 123.045C508.286 53.4542 491.707 31.7965 418.161 74.3687C474.064 57.7008 474.489 67.468 442.286 92.7884C440.214 94.4339 438.035 96.0795 435.697 97.8312L435.591 97.8843Z" fill="#010101"/>
<path fill-rule="evenodd" clip-rule="evenodd" d="M456.9 163.388C376.127 247.365 363.745 261.219 292.962 321.097C248.271 354.167 197.575 388.936 232.754 283.62C251.725 186.108 190.986 183.772 66.3189 301.191C57.5508 309.418 49.7392 317.115 42.7778 324.282C-24.9229 394.457 -8.50255 416.38 65.3093 373.702C8.76803 390.529 8.9806 380.337 42.2995 354.379C44.0532 352.999 45.8599 351.619 47.773 350.186C47.773 350.186 47.773 350.186 47.773 350.239C50.5894 348.222 52.9807 346.576 54.9469 345.355C94.8553 405.976 163.566 446 241.575 446C364.861 446 464.818 346.152 464.818 223C464.818 202.351 462.001 182.339 456.74 163.388H456.9Z" fill="#010101"/>
</g>
<defs>
<clipPath id="clip0_294_24">
<rect width="1600" height="446" fill="white"/>
</clipPath>
</defs>
</svg>
