<svg width="26.599022mm" height="16.75913mm" viewBox="0 0 26.599022 16.75913" version="1.1" id="svg4626" xmlns="http://www.w3.org/2000/svg" xmlns:svg="http://www.w3.org/2000/svg">
  <defs id="defs4623"></defs>
  <g id="layer1" transform="translate(-90.382079,-44.069231)">
    <g id="g3894" transform="matrix(0.35277777,0,0,-0.35277777,108.93671,44.069231)">
      <path d="m 0,0 h -19.683 c 5.989,-2.318 10.889,-6.833 13.703,-12.555 h 1.475 c 7.329,0 12.147,-3.122 12.147,-10.791 0,-7.126 -4.954,-11.605 -11.605,-11.605 H -5.98 c -2.814,-5.722 -7.714,-10.238 -13.702,-12.555 h 19.139 c 9.977,0 23.346,8.483 23.346,24.092 C 22.803,-8.891 11.673,0 0,0" style="fill:#f4f4f4;fill-opacity:1;fill-rule:nonzero;stroke:none" id="path3896"></path>
    </g>
    <g id="g3898" transform="matrix(0.35277777,0,0,-0.35277777,107.14114,52.448832)">
      <path d="m 0,0 c 0,-13.118 -10.635,-23.753 -23.753,-23.753 -13.118,0 -23.753,10.635 -23.753,23.753 0,13.118 10.635,23.753 23.753,23.753 C -10.635,23.753 0,13.118 0,0" style="fill:#3a7283;fill-opacity:1;fill-rule:nonzero;stroke:none" id="path3900"></path>
    </g>
  </g>
</svg>
